<?xml version="1.0" encoding="utf-8"?>
<!-- Generator: Adobe Illustrator 26.0.3, SVG Export Plug-In . SVG Version: 6.00 Build 0)  -->
<svg version="1.1" xmlns="http://www.w3.org/2000/svg" xmlns:xlink="http://www.w3.org/1999/xlink" x="0px" y="0px"
	 viewBox="0 0 1280 1280" style="enable-background:new 0 0 1280 1280;" xml:space="preserve">
<style type="text/css">
	.st0{fill:#FFFFFF;}
	.st1{display:none;fill:#FFFFFF;}
	.st2{font-family:'Arial-BoldMT';}
	.st3{font-size:129.5195px;}
</style>
<g id="Layer_2">
	<rect width="1280" height="1280"/>
	<g>
		<path class="st0" d="M709.16,554.98l-71.93,176.71c-1.49,3.66-5.34,5.71-9.08,5.09c-3.76,0.62-7.62-1.43-9.1-5.09l-71.89-176.61
			c-1.74-4.26,0.33-9.17,4.59-10.9l0.67-0.27c4.26-1.74,9.17,0.33,10.9,4.59l64.8,159.21l64.84-159.31
			c1.74-4.26,6.64-6.33,10.9-4.59l0.69,0.27C708.82,545.81,710.9,550.71,709.16,554.98z"/>
		<path class="st0" d="M533.6,550.99v1.46c0,4.33-3.54,7.88-7.88,7.88h-81.98v167.33c0,4.59-3.76,8.36-8.36,8.36h-0.73
			c-4.6,0-8.36-3.77-8.36-8.36V551.48c0-4.6,3.76-8.36,8.36-8.36h91.08C530.06,543.11,533.6,546.66,533.6,550.99z"/>
		<path class="st0" d="M434.64,543.11c-4.6,0-8.36,3.76-8.36,8.36v-0.49c0-4.33,3.54-7.88,7.88-7.88H434.64z"/>
		<path class="st0" d="M853.72,550.99v0.86c0,1.05-0.2,2.11-0.62,3.13l-0.79,1.95l-71.14,174.76c-1.74,4.25-6.63,6.33-10.89,4.59
			l-0.69-0.29c-4.26-1.72-6.33-6.63-4.59-10.89l67.07-164.77H729.24c-4.33,0-7.88-3.54-7.88-7.88v-1.46c0-4.33,3.54-7.88,7.88-7.88
			h116.6C850.18,543.11,853.72,546.66,853.72,550.99z"/>
		<path class="st0" d="M853.72,551.85v0.6c0,1.66-0.52,3.2-1.41,4.48l0.79-1.95C853.52,553.96,853.72,552.9,853.72,551.85z"/>
		<path class="st0" d="M805.05,585.2v0.67c0,1.05-0.2,2.11-0.62,3.13l-0.96,2.35l-57.05,140.18c-1.74,4.26-6.64,6.33-10.9,4.59
			c-4.26-1.74-6.33-6.64-4.59-10.9l53.19-130.69h-54.87c-4.33,0-7.88-3.54-7.88-7.88v-1.46c0-4.33,3.54-7.88,7.88-7.88h67.93
			C801.5,577.33,805.05,580.87,805.05,585.2z"/>
		<path class="st0" d="M805.05,585.88v0.79c0,1.75-0.59,3.37-1.58,4.69l0.96-2.35C804.84,587.98,805.05,586.92,805.05,585.88z"/>
		<path class="st0" d="M534.09,585.2v1.46c0,4.33-3.54,7.88-7.88,7.88h-48.17v17.57h32.18c4.33,0,7.88,3.54,7.88,7.88v1.48
			c0,4.32-3.54,7.86-7.88,7.86h-41.76c-4.33,0-7.88-3.54-7.88-7.86v-35.78c0-4.6,3.77-8.36,8.36-8.36h57.27
			C530.54,577.33,534.09,580.87,534.09,585.2z"/>
		<path class="st0" d="M468.94,577.33c-4.59,0-8.36,3.76-8.36,8.36v-0.49c0-4.33,3.54-7.88,7.88-7.88H468.94z"/>
		<path class="st0" d="M518.09,656.23v1.46c0,4.33-3.54,7.88-7.88,7.88h-32.18v62.09c0,4.59-3.76,8.36-8.36,8.36h-0.73
			c-4.59,0-8.36-3.77-8.36-8.36v-70.94c0-4.6,3.77-8.36,8.36-8.36h41.27C514.55,648.35,518.09,651.89,518.09,656.23z"/>
		<path class="st0" d="M468.94,648.35c-4.59,0-8.36,3.76-8.36,8.36v-0.49c0-4.33,3.54-7.88,7.88-7.88H468.94z"/>
		<path class="st0" d="M673.07,555.12l-35.84,88.02c-1.49,3.66-5.34,5.71-9.08,5.09c-3.77,0.62-7.62-1.42-9.1-5.09l-35.84-88.01
			c-1.72-4.26,0.34-9.17,4.6-10.9l0.67-0.27c4.26-1.74,9.17,0.33,10.9,4.59l28.75,70.62l28.75-70.64c1.72-4.26,6.63-6.33,10.89-4.59
			l0.69,0.27C672.74,545.95,674.8,550.86,673.07,555.12z"/>
	</g>
	<text transform="matrix(1 0 0 1 229.7183 774.7359)" class="st1 st2 st3">Fashionvilla7</text>
</g>
<g id="Layer_3">
</g>
</svg>
